PathFileType	3	(X/Y/Z)	results
DataRate	CameraRate	NumFrames	NumMarkers	Units	OrigDataRate	OrigDataStartFrame	OrigNumFrames
30.0	30.0	4	85	mm	30.0	240	478
Frame#	Time	head			nose			neck			shoulder_r			elbow_r			wrist_r			shoulder_l			elbow_l			wrist_l			hip_r			knee_r			ankle_r			hip_l			knee_l			ankle_l			heel_r			heel_l			mtoe_r			ltoe_r			mtoe_l			ltoe_l			asis_l			asis_r			psi_r			psi_l			mhnd_r			lhnd_r			mhnd_l			lhnd_l			l_lat_knee			r_med_wrist			l_lat_ankle			r_med_ankle			r_lat_knee			xiphoid			l_med_ankle			r_med_knee			l_med_elbow			navel			r_lat_elbow			r_lat_wrist			l_med_wrist			l_lat_elbow			l_med_knee			r_med_elbow			r_lat_ankle			l_lat_wrist			chin			T10			r_eye			l_eye			l_ear			r_ear			spinal_cord_8			spinal_cord_12			spinal_cord_27			spinal_cord_33			up_arm_r_0			up_arm_r_5			up_arm_l_0			up_arm_l_5			front_torso_11			front_torso_7			front_torso_4			front_torso_1			front_torso_10			thigh_r_2			thigh_r_3			thigh_l_1			thigh_l_5			shank_l_0			shank_l_4			shank_r_1			shank_r_2			foot_r_1			foot_r_3			foot_r_5			foot_r_6			foot_r_7			foot_l_1			foot_l_7			foot_l_0			foot_l_4			foot_l_5			foot_l_6			
		X1	Y1	Z1	X2	Y2	Z2	X3	Y3	Z3	X4	Y4	Z4	X5	Y5	Z5	X6	Y6	Z6	X7	Y7	Z7	X8	Y8	Z8	X9	Y9	Z9	X10	Y10	Z10	X11	Y11	Z11	X12	Y12	Z12	X13	Y13	Z13	X14	Y14	Z14	X15	Y15	Z15	X16	Y16	Z16	X17	Y17	Z17	X18	Y18	Z18	X19	Y19	Z19	X20	Y20	Z20	X21	Y21	Z21	X22	Y22	Z22	X23	Y23	Z23	X24	Y24	Z24	X25	Y25	Z25	X26	Y26	Z26	X27	Y27	Z27	X28	Y28	Z28	X29	Y29	Z29	X30	Y30	Z30	X31	Y31	Z31	X32	Y32	Z32	X33	Y33	Z33	X34	Y34	Z34	X35	Y35	Z35	X36	Y36	Z36	X37	Y37	Z37	X38	Y38	Z38	X39	Y39	Z39	X40	Y40	Z40	X41	Y41	Z41	X42	Y42	Z42	X43	Y43	Z43	X44	Y44	Z44	X45	Y45	Z45	X46	Y46	Z46	X47	Y47	Z47	X48	Y48	Z48	X49	Y49	Z49	X50	Y50	Z50	X51	Y51	Z51	X52	Y52	Z52	X53	Y53	Z53	X54	Y54	Z54	X55	Y55	Z55	X56	Y56	Z56	X57	Y57	Z57	X58	Y58	Z58	X59	Y59	Z59	X60	Y60	Z60	X61	Y61	Z61	X62	Y62	Z62	X63	Y63	Z63	X64	Y64	Z64	X65	Y65	Z65	X66	Y66	Z66	X67	Y67	Z67	X68	Y68	Z68	X69	Y69	Z69	X70	Y70	Z70	X71	Y71	Z71	X72	Y72	Z72	X73	Y73	Z73	X74	Y74	Z74	X75	Y75	Z75	X76	Y76	Z76	X77	Y77	Z77	X78	Y78	Z78	X79	Y79	Z79	X80	Y80	Z80	X81	Y81	Z81	X82	Y82	Z82	X83	Y83	Z83	X84	Y84	Z84	X85	Y85	Z85	
240	8.0	-34.19327056400698	2056.3608871016468	981.5953251779799	-89.99723490588421	1814.5989611740815	877.7980025922338	-85.75721022550583	1649.35897493689	1095.582483705463	110.97425767946484	1597.4168005616896	1155.4600495419713	175.44531698937473	1299.015236906909	1218.1657452096342	272.7670137651587	1027.8525135530242	1196.3249764805284	-268.5304162395086	1585.6698167427899	1018.1358982693491	-350.839883635822	1294.6668926301413	1100.401851927694	-411.2257941886396	1000.8481320584247	1109.2600843771986	45.19877339571446	1118.3584365261424	1113.9591918218673	17.523453588363886	632.6135045811426	1169.5093793494336	-51.49321319501498	177.22585506709643	1354.607924595173	-141.33979550058828	1107.3772566667894	1048.3011822893775	-140.38779557872436	620.2984004918977	1014.0512714227227	-100.03038812557918	142.06790425586607	969.4604415236176	-68.81182425122346	121.68920194266155	1383.980668065129	-103.74860592236762	73.32643891605662	982.9486960096341	-56.433254636075745	33.07536106821653	1148.0072960073576	-1.7991717746402984	15.692840311503629	1229.9102689364827	-31.178661261513778	65.7672678573071	744.9816346982669	-130.85625936217065	51.19098220863007	782.9653088836518	-175.86140059030157	1174.6725714309987	1002.3805785709478	96.51095644691465	1187.2012524460408	1101.2688625614537	-41.66096143948885	1178.6980873915747	1201.043566735392	-132.7826226674076	1173.8284201140982	1162.7281459027863	298.3221653760545	963.9967951578468	1221.841034734944	303.27872958818824	950.7943704713929	1170.1673401858222	-452.22990539073004	938.136604292843	1123.4214384997208	-409.7483373749182	912.7578052457915	1103.247686703023	-201.34233425209243	613.5458237409113	997.0194902826181	280.926025436163	1040.0038645589764	1229.5986425712424	-162.50627997671168	119.49973632571952	953.5040219147209	-89.6288425486025	159.5949916540457	1329.4407109998501	59.9203049980679	622.8904497902787	1202.7712345642217	-43.961864188935955	1464.7049296073585	999.3438871821767	-58.19381716279198	131.902066728167	962.8006152914925	-21.448217215330953	624.8852210859437	1134.4920158275936	-347.3471843075889	1315.5038020776053	1137.9635573622572	-27.34429499881301	1225.5923180450961	987.0365088587496	217.97211945619438	1312.8704267964797	1201.7303017283612	250.2088756129468	1032.180905524661	1163.472702501091	-447.58011586259323	1021.3598954398051	1108.4247797443302	-362.7336610890168	1299.1284424561015	1054.4281964911224	-80.79841478982691	620.0053203020128	994.8116085462212	133.5480417526321	1300.2230883704074	1231.3033177576751	3.264492311092125	153.83945154550622	1379.976067345096	-374.0061788447921	1002.6208440036679	1094.2116081811234	-97.70468698166734	1726.2094588495486	921.3996995420564	-103.0928890530463	1476.8251201622509	1204.762004146225	-44.024337487610474	1846.828136448253	864.496111487004	-129.49226358178234	1860.1480001663112	876.3713731432609	-174.0710729966139	1888.0398291276726	1011.5049662631224	37.950966963144346	1851.7867555753166	986.0158978962241	-104.61358483803865	1713.8759159434046	1145.8164874446825	-112.72666182965094	1585.8595309925233	1202.0522107071372	-74.33345743157876	1312.3667728887738	1194.7242890410134	-98.66204328142281	1466.3174559884	1191.2193152728414	144.4908963820433	1439.0581247125247	1132.487748615342	168.67732136528838	1432.2063780132655	1234.7176176696153	-299.4854956691155	1522.1426495051362	1003.2532344901946	-340.8605142758394	1392.2154717716915	1122.7140868290214	13.043593170865107	1259.5381153776302	1043.4128043272642	-27.57018492253256	1369.9567533254394	969.1380340616581	-117.8245887731726	1509.2390172760881	971.8263037359095	-119.92994211626227	1287.391019618603	1000.8675534233349	43.625502421299394	1565.024737632422	1008.6957470940922	13.55424191315803	854.1593472122192	1129.0359994040655	104.61718123839273	812.7591572452237	1209.8738508199729	-82.1971105565473	758.7821018435785	1030.6303466659156	-261.06966477430814	977.1960690285142	994.010444097221	-186.55844603729838	254.50699738351761	944.8174235106659	-65.684384970146	439.3988593600845	1008.4255640069802	57.673974565116154	437.8064069736827	1275.8661335889803	-64.72939618113591	392.5877675919119	1243.0750135774797	-40.2774518420365	20.651738025006473	1175.1967588675357	-17.79421218043335	15.495132760117727	1198.775973525085	-68.84200261766863	79.82714015760627	1228.9189475069895	-31.098044087081846	71.0805217536816	1250.9890125828363	-10.714353157483716	46.57787002252209	1275.5555597488512	-90.51481208773482	51.71217194473317	759.3502867169158	-139.12032995002906	87.63476929552436	865.2264337277538	-108.50872325211964	51.61435532473063	763.6481918119678	-68.58675994690076	51.81742662456846	754.7585905507475	-92.14282628806666	70.71480533932662	814.4999272821336	-67.93539128724012	85.39684501567474	854.1240424897462	
241	8.033333333333333	-47.06665189153532	2057.2564682081397	970.8673409490815	-99.49129126672511	1814.7955137062336	866.9388166217794	-92.26390900761527	1649.318621236113	1082.0828950362597	104.50597889499572	1600.3489876576452	1144.6377278497039	168.3978863338027	1302.6257135450667	1211.0507624501706	271.74822667277385	1033.8163319602293	1187.85641179129	-278.8022592762871	1583.6700130426145	997.573769653556	-362.5519078629385	1296.739741435778	1091.8194750927582	-425.16901094966767	1003.6077843663159	1106.211996934844	46.04120110105605	1119.528196620711	1100.2345644314962	17.58101840766209	633.6560289808433	1154.7793853779776	-51.41536446258069	181.82801956976263	1348.4121102422114	-139.7897908269838	1107.4245377309217	1032.7916842047957	-137.68962779672893	619.9678462651157	1003.6558150910271	-97.30475152852088	140.9382564525565	968.7103743239688	-69.10227668022608	127.17278272288493	1379.1029537915613	-101.00093021153064	72.18929091187846	983.3647907349522	-49.52343189354461	27.363837492213687	1148.1399320990968	6.988804906628343	19.83439244983877	1230.2667033846635	-28.21552163373442	62.61703237806945	745.5360364408847	-127.92169177642013	48.329723438495115	783.5545005049726	-174.41857377215842	1174.6880417542172	986.9051843241849	96.92055065073484	1188.8398531715752	1088.3811284074875	-42.09545274087546	1178.7183896264205	1186.8234012280363	-132.8177235098482	1173.3334811779132	1147.639034122889	295.3566920340684	969.1189871578126	1213.1265861726547	306.13580873706917	958.383693770016	1161.7689540842548	-464.5247819479451	941.2322114574094	1125.5776364586764	-425.85821570869774	915.5930928631834	1099.0582175984418	-196.30822420490315	613.3608747666208	979.8165545293417	276.0315922382399	1044.495190797015	1222.3379490425546	-159.71725258257564	118.07566360993916	952.9259467529987	-91.0391890906417	164.68490673230167	1325.290077132573	61.266824000204416	623.5690194874586	1186.1735156324444	-48.288572037711084	1465.4425783603858	985.3275051998465	-55.44266072927655	130.63150590657912	962.4388150995953	-23.258055250488184	626.4679169915665	1121.877260594416	-352.68153137886645	1317.244880120895	1128.416912361493	-28.30572748797356	1226.6135161278442	972.5282422548304	212.20889258756793	1317.6758411028259	1199.8834705276947	252.85019491319804	1039.4263543299296	1152.952708202703	-460.95011882822416	1024.5818983227878	1110.9938101830544	-380.6989382896385	1301.9436120603514	1048.0182264761793	-76.28322562994524	619.2433470479326	991.5141010178531	125.23328297686639	1302.694483970526	1219.1900915099413	4.019938640764442	157.63423642024742	1371.443846505532	-390.55985756545755	1005.113706059137	1085.844434201617	-105.70536262739935	1726.2448995747652	910.4519292390985	-106.60239210800506	1476.3731775663084	1191.0457598284313	-54.059941307916624	1847.741477365215	853.5327261267424	-139.68363239333226	1859.735880308319	865.6951610251832	-184.25426911077548	1886.7757525984216	1001.0044955526818	28.21597634285368	1853.8062866443327	974.7989143059514	-111.80190306413013	1713.4752165039904	1132.517523456816	-117.81035126806053	1585.2626096496451	1188.5701719117212	-75.53788395770664	1312.3609146008152	1180.5871485456278	-102.08637311124033	1465.952585339059	1177.4639833386689	144.3090690105839	1443.1356211598825	1123.943929064219	156.51313540898175	1435.3795237116228	1228.2213447824436	-314.6424915667785	1521.7854053287003	987.5147101370798	-344.7134908534265	1393.6027823300078	1112.1293524672703	11.861245753964313	1261.0413304425108	1028.7699102617223	-30.685871391269867	1370.989353668938	954.8803231299192	-122.91280632848877	1508.9587105480527	958.2392357432018	-121.70003037197289	1287.0554832642633	986.9071211947045	37.89616444945168	1566.9921398224826	994.4349592462601	13.167334998356623	855.5021741254354	1115.7075624187478	107.67964324690739	813.0715729355195	1191.9195072934733	-81.01514213322487	758.3947487761143	1025.5498147412168	-253.1836968338399	977.2295734534495	966.3013779793082	-183.68265917785922	252.89116484791418	941.46452733636	-63.02629017462884	438.9724442897202	1001.9404139498128	58.93907665353662	439.27977729579925	1261.4612141227158	-65.74039832971913	396.1575442664693	1235.04020722185	-32.09157668569833	18.061419755523804	1175.7844381053444	-9.084653158153696	16.39240897460606	1199.3632820171365	-65.94513104606749	77.06785497854574	1226.5378891232062	-27.410495226358563	73.21685887071034	1248.6387755926328	-4.6173321963806915	52.17285603021283	1274.2710150767257	-87.55934355508916	48.663481760357094	759.9718218972497	-136.27263894701198	85.47444205357849	865.4927010032334	-105.55705261205469	48.595796041515655	764.2543775166527	-65.62723544680318	48.7375566256582	755.3989267790607	-89.24361539315717	68.13769724378547	814.9550149685784	-65.07698916246605	83.1680086497561	854.473322371969	
242	8.066666666666666	-60.46855624823155	2059.0795591657406	959.0859213874625	-110.2789221630942	1815.8064826838518	855.771192781569	-99.13034270393014	1650.6738912434976	1069.0056301229788	96.24739837782157	1603.8391916188543	1133.409719648021	160.45614428578446	1307.3026655156468	1204.651144289124	266.47550161756254	1040.0093028754607	1176.5102747547603	-283.7335498459228	1583.4255167100077	978.9456210324626	-366.6792041252199	1297.724427507544	1077.5364089449183	-436.7510540665147	1006.612878639916	1097.4961810131877	45.808035366574956	1121.4816488476022	1088.346621135275	18.0741521853834	634.6735574017777	1135.4716907421457	-47.36420288365997	186.05477497157358	1337.6144442917198	-139.21582853576234	1109.4837156990507	1018.7016816237433	-134.5365655000413	621.7523235477103	993.9406380240447	-97.7982877849014	141.90898095596228	967.0680590913308	-64.53540350783992	132.02110311853346	1369.9086173854064	-102.0092519363292	73.1207581639144	982.6502114735407	-50.00386123337593	27.217850670500102	1140.792518745452	10.730095978829693	25.33832464390859	1220.1838648472667	-25.503021001050897	61.76655550279374	746.0709670027909	-125.45270080720725	45.95176068886048	782.8242653947635	-173.39914585579535	1176.931447245273	972.7516350588504	96.73135719501519	1190.9140349885508	1077.425222931293	-43.399174306573364	1180.1323783707658	1174.2031353028972	-133.65579477667848	1174.8301550883969	1133.9468169480367	289.26606455127524	974.5262573080901	1200.4737627907073	302.5335002774283	965.7529556547802	1149.326460006505	-476.94908686936674	945.54261817013	1119.1562420861283	-440.2020146143591	918.594622377098	1091.2419889682062	-191.63889265765587	614.8549579421576	966.7997058880105	269.0532439562985	1049.420561357328	1211.5266297343458	-160.4331375240119	119.24276574710524	951.8929189167654	-89.0133097297103	169.75739484562945	1317.6567512638867	63.66083629103389	623.8924204494446	1163.7061964403204	-52.8371378648585	1467.3603143408845	972.2641882454321	-56.0357543670502	131.18658190722982	960.8296963919834	-25.415702685952702	628.5364455741926	1105.994235240576	-354.91698356829613	1318.1701161776723	1113.6041430218834	-29.48199518217252	1228.8301768382526	959.6005794250043	204.61869080066657	1322.9503515970027	1195.965614773067	249.21749479694827	1046.8251027754397	1140.977437098903	-471.69216647832826	1028.6297757244536	1103.6151499958366	-386.7169415944136	1303.0757580029751	1034.585312309319	-72.52841348404499	621.1082615754253	985.535401808176	116.89713194465102	1306.771351139052	1210.2873255117686	9.024101675249973	160.63070323397628	1356.6630278034088	-403.0322736079214	1006.9655275167084	1075.6371235549277	-113.92215857568995	1727.0888950862902	899.2353549717476	-110.6490073011655	1477.637015167875	1178.1577458668748	-65.76520157316234	1849.6410172204505	841.5261833118288	-151.34474131700728	1859.96613683605	855.4093127092764	-193.72596729331275	1885.9440700452967	991.6271200329121	18.775452892812226	1857.1116040142329	961.1450154738467	-119.42376886306435	1714.588933249258	1119.4486468067962	-123.42061572916793	1586.3528685689223	1175.627026415371	-77.27577355805093	1314.0764862633039	1167.7371281485587	-106.02751441255258	1467.2701113381152	1164.5703645507924	139.4259099703714	1447.1520869176536	1115.7086108270837	145.700196648306	1439.926950437801	1220.5480425438066	-320.75082286526214	1521.973020630998	970.6556376326943	-346.7508378030334	1394.3942660291082	1096.7965093494788	10.366637213193739	1263.8781501848225	1015.6854385103071	-33.98224018814223	1373.141658679783	941.8399318095562	-128.16145551955555	1509.7813175927	945.3772007016605	-123.68496627914757	1287.943400058022	974.226120069641	31.91516634773876	1570.1395843420476	981.0127049423834	12.182369694543505	857.4171827106188	1101.351144418744	111.81009391060925	812.9609225173386	1169.4624530726664	-79.51024465485804	760.5374962937294	1018.0111771605962	-248.24429709526837	978.4644554963406	946.7529918221458	-183.44796268745063	254.01633916993487	938.2062117925029	-61.21197150407476	440.20584718110933	995.06889171001	62.488679529860065	440.04897816131705	1240.4586027910234	-64.83811098070929	399.89981552600574	1223.7702467559725	-30.73436927089858	19.73708946766943	1167.7619116826118	-6.56571920326901	20.093137994955683	1190.207748507298	-65.6458267826531	78.00063240586184	1218.6567545399778	-25.934105071765785	77.06359928857121	1238.912584298563	-0.7013554398889593	58.13041376058169	1263.8972369719477	-84.75821523408155	46.792330651054876	759.8324067280558	-135.78231223375613	84.04507418161204	864.0987123965882	-102.81268131940753	46.41249215018492	763.8516569536658	-62.76640753056643	47.255724682345665	755.5803621816585	-87.66013926111746	66.98563830553573	814.5045433567932	-64.39791397852603	83.05608917324317	854.1560526366909	
243	8.1	-75.63166727473347	2061.3283708077015	947.9543696761264	-121.00446328984066	1817.7122231210988	843.4111852566942	-104.18594491070199	1652.0566113230245	1055.463382277529	89.69375210768315	1607.7226833289255	1122.110642299841	152.16975065354353	1311.1511742319688	1194.733672717036	258.11464332764496	1044.3432166876269	1162.069504489741	-288.1975714529332	1584.8947656851028	963.6106059858989	-360.39124252433174	1293.485953123573	1053.5784625526046	-436.0373132963964	1003.6790903641146	1072.1269075976843	44.665713300617085	1123.4688524661071	1077.9654819556545	19.55188587570273	635.4488647051767	1114.8820695095462	-43.612710406343226	189.97412144007114	1324.560799869398	-139.44740130753422	1112.2420456603245	1005.8231362010006	-132.70506686702703	624.3102951312868	984.6808713367382	-100.04609077575479	143.79883210928162	965.6126998797508	-60.17839790631654	136.14532977487193	1358.134385428696	-104.82982683405045	74.92102736451258	982.0403195274956	-55.96900608954619	33.278606298702705	1127.7221628311001	8.29219144215683	30.7848963808858	1204.2689584219931	-24.574542522580067	62.520112199026116	746.7592815165964	-124.72739440866232	45.09593381487935	782.208617727184	-173.00079848999306	1180.141962926931	960.0752048187688	95.7595951469881	1192.9705741705075	1068.3611179479867	-45.6164702673226	1181.3590526374776	1163.212343543674	-135.34726780401658	1176.4923807689388	1121.7437800737225	280.1620249397255	978.1804541478518	1184.8310859730086	294.6056312720061	970.7079141901763	1133.7959447716219	-477.39885923486537	943.2865961361869	1093.4947797252455	-441.1777401497329	915.7749217695402	1065.4432979556188	-189.24733366973757	617.0748055385751	956.538536331898	259.8928933319369	1052.8247412364938	1197.3719580317113	-162.91330142261734	121.4114991106241	950.9946377734689	-86.52824462988842	174.28757395295696	1306.9326586945974	66.27710570200912	624.3092714128891	1140.9376080919694	-56.08661924239862	1468.5984178258886	959.8841953346017	-58.39342843973447	132.6257633636242	959.4309150944083	-25.646686773609414	630.1791662318827	1087.9996449396904	-349.1384514247255	1313.198864094613	1090.2122351209416	-30.60322970491109	1230.214130620954	948.6599070905379	196.5492938620408	1326.873697489071	1187.393548440902	241.71529274491948	1052.1444929552329	1126.3332782111345	-470.5489206807073	1026.332502162159	1078.3589830847213	-380.8678987884874	1299.4624953483667	1010.9178032230641	-70.5539792182957	623.8625832913905	977.5920405331636	108.46300801325465	1310.5510608670756	1199.069212083841	13.205874379245898	163.66199259302573	1340.9374035175288	-402.3194341381826	1003.4912380726606	1050.2644226886603	-122.36528171624919	1728.6535257375006	886.3053982595025	-114.39306725219015	1479.5637932230218	1165.602688816602	-77.35360514784195	1852.5989485582309	829.034596141016	-163.01970156396357	1860.9702365692947	843.6786550582223	-204.83134150086047	1885.1277306240859	980.4065403191227	7.987122602411439	1861.1214721451609	948.0132652844849	-125.14191126486519	1716.0827937825775	1105.4928646440042	-128.11820550821017	1588.1459998942078	1162.4120340613213	-79.55777229741295	1316.246477682762	1156.2024074493374	-109.65349913669243	1469.159107213112	1152.0850401424664	133.6006773337312	1451.1250348725766	1105.439700166306	136.76034417491744	1443.7277243773867	1210.4071809212774	-323.0702409805296	1522.45574041503	953.5768308120334	-343.7738359197247	1390.153091981274	1075.7702401842723	8.823925447061537	1265.9389716280841	1004.6154298719283	-36.34129933773998	1374.3742766831745	930.0474530787664	-131.72902419097468	1510.1950191815604	932.6050132451744	-125.35268397949109	1288.5771883968982	962.7586220598827	27.738283564064048	1572.1715296203129	968.194678979986	11.704737442990346	859.1434072512827	1086.6533111681406	114.69294976369889	813.2450775990401	1148.5238560785722	-78.62604002945811	763.5014068497289	1008.8933861092672	-246.6031723604453	980.3370074595767	932.6892241493507	-184.84631031038552	256.1297017075865	935.1556595065259	-60.89191629156852	442.1990745366879	988.5881542998548	65.73535469663672	440.9690924203688	1219.3729024329825	-62.99932679269529	403.08233093603764	1209.649571971595	-35.496737042832166	25.588299386696974	1153.7292511676048	-10.338415861921844	25.77657592124566	1175.0620764542484	-68.0991243410462	83.39369720172152	1206.6381885665514	-27.512005662008356	82.32040935619709	1225.06999157247	-1.166969639385243	63.19975273978506	1248.7285968770072	-83.71785133923223	46.50524684655507	759.8120891370688	-137.034100612335	83.86166793966557	862.8876111561789	-101.819313804486	45.80532880783531	763.568359447773	-61.678460647027826	47.36557954458048	755.8802564236573	-87.8423243601669	67.23395199202089	814.204578195122	-65.50320688480305	84.20408665518437	854.0117517232594	
